<svg id="visual" viewBox="0 0 1366 100" width="1366" height="100" xmlns="http://www.w3.org/2000/svg" xmlns:xlink="http://www.w3.org/1999/xlink" version="1.1"><path d="M0 18L20.7 17.2C41.3 16.3 82.7 14.7 124 14C165.3 13.3 206.7 13.7 248.2 13.5C289.7 13.3 331.3 12.7 372.8 12C414.3 11.3 455.7 10.7 497 10.7C538.3 10.7 579.7 11.3 621 10.8C662.3 10.3 703.7 8.7 745 8.2C786.3 7.7 827.7 8.3 869 10C910.3 11.7 951.7 14.3 993.2 14.8C1034.7 15.3 1076.3 13.7 1117.8 12.7C1159.3 11.7 1200.7 11.3 1242 11.8C1283.3 12.3 1324.7 13.7 1345.3 14.3L1366 15L1366 0L1345.3 0C1324.7 0 1283.3 0 1242 0C1200.7 0 1159.3 0 1117.8 0C1076.3 0 1034.7 0 993.2 0C951.7 0 910.3 0 869 0C827.7 0 786.3 0 745 0C703.7 0 662.3 0 621 0C579.7 0 538.3 0 497 0C455.7 0 414.3 0 372.8 0C331.3 0 289.7 0 248.2 0C206.7 0 165.3 0 124 0C82.7 0 41.3 0 20.7 0L0 0Z" fill="#6daae3"></path><path d="M0 35L20.7 34.8C41.3 34.7 82.7 34.3 124 33.5C165.3 32.7 206.7 31.3 248.2 31.2C289.7 31 331.3 32 372.8 30C414.3 28 455.7 23 497 22.7C538.3 22.3 579.7 26.7 621 27C662.3 27.3 703.7 23.7 745 23.7C786.3 23.7 827.7 27.3 869 28.7C910.3 30 951.7 29 993.2 27.7C1034.7 26.3 1076.3 24.7 1117.8 24.5C1159.3 24.3 1200.7 25.7 1242 26C1283.3 26.3 1324.7 25.7 1345.3 25.3L1366 25L1366 13L1345.3 12.3C1324.7 11.7 1283.3 10.3 1242 9.8C1200.7 9.3 1159.3 9.7 1117.8 10.7C1076.3 11.7 1034.7 13.3 993.2 12.8C951.7 12.3 910.3 9.7 869 8C827.7 6.3 786.3 5.7 745 6.2C703.7 6.7 662.3 8.3 621 8.8C579.7 9.3 538.3 8.7 497 8.7C455.7 8.7 414.3 9.3 372.8 10C331.3 10.7 289.7 11.3 248.2 11.5C206.7 11.7 165.3 11.3 124 12C82.7 12.7 41.3 14.3 20.7 15.2L0 16Z" fill="#4d99dd"></path><path d="M0 58L20.7 55.7C41.3 53.3 82.7 48.7 124 46.7C165.3 44.7 206.7 45.3 248.2 47.5C289.7 49.7 331.3 53.3 372.8 50.5C414.3 47.7 455.7 38.3 497 38.2C538.3 38 579.7 47 621 49.8C662.3 52.7 703.7 49.3 745 47.7C786.3 46 827.7 46 869 45.2C910.3 44.3 951.7 42.7 993.2 41.5C1034.7 40.3 1076.3 39.7 1117.8 41C1159.3 42.3 1200.7 45.7 1242 46.3C1283.3 47 1324.7 45 1345.3 44L1366 43L1366 23L1345.3 23.3C1324.7 23.7 1283.3 24.3 1242 24C1200.7 23.7 1159.3 22.3 1117.8 22.5C1076.3 22.7 1034.7 24.3 993.2 25.7C951.7 27 910.3 28 869 26.7C827.7 25.3 786.3 21.7 745 21.7C703.7 21.7 662.3 25.3 621 25C579.7 24.7 538.3 20.3 497 20.7C455.7 21 414.3 26 372.8 28C331.3 30 289.7 29 248.2 29.2C206.7 29.3 165.3 30.7 124 31.5C82.7 32.3 41.3 32.7 20.7 32.8L0 33Z" fill="#1e88d7"></path><path d="M0 73L20.7 72C41.3 71 82.7 69 124 69.5C165.3 70 206.7 73 248.2 74.3C289.7 75.7 331.3 75.3 372.8 75.5C414.3 75.7 455.7 76.3 497 75.7C538.3 75 579.7 73 621 70.7C662.3 68.3 703.7 65.7 745 65.7C786.3 65.7 827.7 68.3 869 68C910.3 67.7 951.7 64.3 993.2 62.8C1034.7 61.3 1076.3 61.7 1117.8 62C1159.3 62.3 1200.7 62.7 1242 64.7C1283.3 66.7 1324.7 70.3 1345.3 72.2L1366 74L1366 41L1345.3 42C1324.7 43 1283.3 45 1242 44.3C1200.7 43.7 1159.3 40.3 1117.8 39C1076.3 37.7 1034.7 38.3 993.2 39.5C951.7 40.7 910.3 42.3 869 43.2C827.7 44 786.3 44 745 45.7C703.7 47.3 662.3 50.7 621 47.8C579.7 45 538.3 36 497 36.2C455.7 36.3 414.3 45.7 372.8 48.5C331.3 51.3 289.7 47.7 248.2 45.5C206.7 43.3 165.3 42.7 124 44.7C82.7 46.7 41.3 51.3 20.7 53.7L0 56Z" fill="#1776ba"></path><path d="M0 101L20.7 101C41.3 101 82.7 101 124 101C165.3 101 206.7 101 248.2 101C289.7 101 331.3 101 372.8 101C414.3 101 455.7 101 497 101C538.3 101 579.7 101 621 101C662.3 101 703.7 101 745 101C786.3 101 827.7 101 869 101C910.3 101 951.7 101 993.2 101C1034.7 101 1076.3 101 1117.8 101C1159.3 101 1200.7 101 1242 101C1283.3 101 1324.7 101 1345.3 101L1366 101L1366 72L1345.3 70.2C1324.7 68.3 1283.3 64.7 1242 62.7C1200.7 60.7 1159.3 60.3 1117.8 60C1076.3 59.7 1034.7 59.3 993.2 60.8C951.7 62.3 910.3 65.7 869 66C827.7 66.3 786.3 63.7 745 63.7C703.7 63.7 662.3 66.3 621 68.7C579.7 71 538.3 73 497 73.7C455.7 74.3 414.3 73.7 372.8 73.5C331.3 73.3 289.7 73.7 248.2 72.3C206.7 71 165.3 68 124 67.5C82.7 67 41.3 69 20.7 70L0 71Z" fill="#12649d"></path></svg>